<?xml version="1.0" encoding="UTF-8" standalone="no"?>
<!DOCTYPE svg PUBLIC "-//W3C//DTD SVG 1.1//EN" "http://www.w3.org/Graphics/SVG/1.1/DTD/svg11.dtd">
<svg version="1.1" xmlns="http://www.w3.org/2000/svg" xmlns:xlink="http://www.w3.org/1999/xlink" preserveAspectRatio="xMidYMid meet" viewBox="0 0 81.13 1915.18" width="81.13" height="1915.18"><defs><path d="M43.29 664.55C52.01 664.55 59.09 544.89 59.09 397.28C59.09 391.72 59.08 386.16 59.06 380.71C65.37 358.25 70.01 283.07 70.01 193.77C70.01 193.77 70.01 193.77 70.01 193.77C70.01 86.76 63.35 0 55.14 0C51.41 0 21.57 0 17.84 0C9.62 0 2.97 86.76 2.97 193.77C2.97 193.77 2.97 193.77 2.97 193.77C2.97 287.08 8.03 364.96 14.76 383.38C15.37 484.54 20.42 563.49 26.56 563.49C27.91 563.49 29.21 559.67 30.41 552.67C33.29 620.4 37.98 664.55 43.29 664.55Z" id="a1lDhqPF7"></path><radialGradient id="gradienta3ncK9uDyu" gradientUnits="userSpaceOnUse" cx="36.49" cy="10.38" dx="41.5" dy="655.66" r="645.3"><stop style="stop-color: #5ba4fc;stop-opacity: 0.94" offset="0%"></stop><stop style="stop-color: #7c7cfc;stop-opacity: 0.95" offset="13.854977051769238%"></stop><stop style="stop-color: #a856fc;stop-opacity: 0.95" offset="31.089216799091872%"></stop><stop style="stop-color: #c43bfc;stop-opacity: 0.96" offset="44.94456603456962%"></stop><stop style="stop-color: #fc51ae;stop-opacity: 0.96" offset="64.69818354593015%"></stop><stop style="stop-color: #fc807f;stop-opacity: 0.97" offset="79.2244781128166%"></stop><stop style="stop-color: #fcae51;stop-opacity: 1" offset="100%"></stop></radialGradient><path d="M47.87 1214.87C57.25 1214.87 64.86 1341.47 64.86 1497.64C64.86 1503.53 64.85 1509.41 64.83 1515.18C71.61 1538.93 76.59 1618.48 76.59 1712.95C76.59 1712.95 76.59 1712.95 76.59 1712.95C76.59 1826.18 69.43 1917.97 60.61 1917.97C56.6 1917.97 24.53 1917.97 20.52 1917.97C11.7 1917.97 4.54 1826.18 4.54 1712.95C4.54 1712.95 4.54 1712.95 4.54 1712.95C4.54 1614.23 9.98 1531.83 17.22 1512.35C17.87 1405.32 23.3 1321.79 29.9 1321.79C31.35 1321.79 32.74 1325.83 34.04 1333.24C37.13 1261.58 42.17 1214.87 47.87 1214.87Z" id="e6XdE5vW7q"></path><radialGradient id="gradientallxKNkpX" gradientUnits="userSpaceOnUse" cx="40.57" cy="1906.98" dx="45.95" dy="1224.27" r="682.73"><stop style="stop-color: #5ba4fc;stop-opacity: 0.94" offset="0%"></stop><stop style="stop-color: #7c7cfc;stop-opacity: 0.95" offset="13.854977051769238%"></stop><stop style="stop-color: #a856fc;stop-opacity: 0.95" offset="31.089216799091872%"></stop><stop style="stop-color: #c33bfc;stop-opacity: 0.96" offset="44.94456603456962%"></stop><stop style="stop-color: #fc51ae;stop-opacity: 0.96" offset="64.69818354593015%"></stop><stop style="stop-color: #fc807f;stop-opacity: 0.97" offset="79.2244781128166%"></stop><stop style="stop-color: #fcae51;stop-opacity: 1" offset="100%"></stop></radialGradient></defs><g><g><g><g><filter id="shadow453104" x="-9.03" y="-12" width="95.04" height="689.55" filterUnits="userSpaceOnUse" primitiveUnits="userSpaceOnUse"><feFlood></feFlood><feComposite in2="SourceAlpha" operator="in"></feComposite><feGaussianBlur stdDeviation="1"></feGaussianBlur><feOffset dx="4" dy="1" result="afterOffset"></feOffset><feFlood flood-color="#aa0ee7" flood-opacity="0.5"></feFlood><feComposite in2="afterOffset" operator="in"></feComposite><feMorphology operator="dilate" radius="1"></feMorphology><feComposite in2="SourceAlpha" operator="out"></feComposite></filter><path d="M43.29 664.55C52.01 664.55 59.09 544.89 59.09 397.28C59.09 391.72 59.08 386.16 59.06 380.71C65.37 358.25 70.01 283.07 70.01 193.77C70.01 193.77 70.01 193.77 70.01 193.77C70.01 86.76 63.35 0 55.14 0C51.41 0 21.57 0 17.84 0C9.62 0 2.97 86.76 2.97 193.77C2.97 193.77 2.97 193.77 2.97 193.77C2.97 287.08 8.03 364.96 14.76 383.38C15.37 484.54 20.42 563.49 26.56 563.49C27.91 563.49 29.21 559.67 30.41 552.67C33.29 620.4 37.98 664.55 43.29 664.55Z" id="bQmzMltJH" fill="white" fill-opacity="1" filter="url(#shadow453104)"></path></g><use xlink:href="#a1lDhqPF7" opacity="1" fill="url(#gradienta3ncK9uDyu)"></use></g><g><g><filter id="shadow11866541" x="-8.46" y="1201.87" width="103.05" height="730.1" filterUnits="userSpaceOnUse" primitiveUnits="userSpaceOnUse"><feFlood></feFlood><feComposite in2="SourceAlpha" operator="in"></feComposite><feGaussianBlur stdDeviation="1"></feGaussianBlur><feOffset dx="5" dy="1" result="afterOffset"></feOffset><feFlood flood-color="#f90c0c" flood-opacity="0.19"></feFlood><feComposite in2="afterOffset" operator="in"></feComposite><feMorphology operator="dilate" radius="1"></feMorphology><feComposite in2="SourceAlpha" operator="out"></feComposite></filter><path d="M47.87 1214.87C57.25 1214.87 64.86 1341.47 64.86 1497.64C64.86 1503.53 64.85 1509.41 64.83 1515.18C71.61 1538.93 76.59 1618.48 76.59 1712.95C76.59 1712.95 76.59 1712.95 76.59 1712.95C76.59 1826.18 69.43 1917.97 60.61 1917.97C56.6 1917.97 24.53 1917.97 20.52 1917.97C11.7 1917.97 4.54 1826.18 4.54 1712.95C4.54 1712.95 4.54 1712.95 4.54 1712.95C4.54 1614.23 9.98 1531.83 17.22 1512.35C17.87 1405.32 23.3 1321.79 29.9 1321.79C31.35 1321.79 32.74 1325.83 34.04 1333.24C37.13 1261.58 42.17 1214.87 47.87 1214.87Z" id="aUtYCFdpH" fill="white" fill-opacity="1" filter="url(#shadow11866541)"></path></g><use xlink:href="#e6XdE5vW7q" opacity="1" fill="url(#gradientallxKNkpX)"></use></g></g></g></svg>